#!OML:ASF H:\Terrain\Patient Classification 1\Walking\liu\liu.ASF
:FULLY-SPECIFIED
:DEGREES
162
root 8.243050 16.573400 -14.155800 7.992930 9.798570 -0.533006
lowerback -2.453425 -1.103830 -0.463831
upperback -0.997870 -1.469140 1.793105
thorax 0.465234 -0.729230 2.023550
lowerneck -9.431500 -3.492115 -7.518200
upperneck 7.518050 -4.191030 7.395600
head 4.565520 -1.689645 3.227375
rclavicle 0.000000 -0.000000
rhumerus -22.745850 4.081775 -40.655849
rradius 16.537149
rwrist -8.806800
rhand -13.788950 -14.852300
rfingers 3.562510
rthumb -0.489132 -29.841049
lclavicle 0.000000 -0.000000
lhumerus -21.931049 -5.110100 47.920750
lradius 11.965950
lwrist -0.051681
lhand -0.631005 -8.923550
lfingers 3.562510
lthumb 12.190500 5.310900
rfemur -15.077600 0.716675 11.578300
rtibia 15.940000
rfoot -6.050100 -0.080680
rtoes -6.768150
lfemur -2.091815 3.998235 -6.974700
ltibia 26.321051
lfoot 1.243875 6.285300
ltoes -8.068500
163
root 8.229260 16.610701 -14.033900 8.168140 9.686500 -0.720423
lowerback -2.511430 -1.016580 -0.366199
upperback -0.995095 -1.357695 1.794585
thorax 0.487359 -0.673780 1.974855
lowerneck -9.299800 -3.513605 -7.553250
upperneck 7.336800 -4.236275 7.517900
head 4.496490 -1.707170 3.267310
rclavicle 0.000000 -0.000000
rhumerus -22.604300 4.325875 -40.762650
rradius 16.637100
rwrist -9.063250
rhand -14.033200 -14.391100
rfingers 3.562510
rthumb -0.725030 -29.378500
lclavicle 0.000000 -0.000000
lhumerus -22.228251 -5.570350 48.201248
lradius 12.443550
lwrist 0.677940
lhand -0.227187 -8.916800
lfingers 3.562510
lthumb 12.577550 5.264500
rfemur -14.735200 0.616640 11.772550
rtibia 15.521900
rfoot -6.203700 0.131155
rtoes -7.473000
lfemur -2.935095 4.035230 -7.040550
ltibia 27.126249
lfoot 1.255065 6.595750
ltoes -5.267700
164
root 8.224850 16.642700 -13.904400 7.930250 9.521380 -0.974710
lowerback -2.470260 -0.917030 -0.168993
upperback -0.881860 -1.236020 1.745955
thorax 0.561515 -0.614970 1.819830
lowerneck -9.361450 -3.552560 -7.329900
upperneck 7.281750 -4.318760 7.424100
head 4.487240 -1.739175 3.179550
rclavicle 0.000000 -0.000000
rhumerus -22.497900 4.506895 -40.834301
rradius 16.917749
rwrist -9.275550
rhand -14.137450 -13.746850
rfingers 3.562510
rthumb -0.825695 -28.733549
lclavicle 0.000000 -0.000000
lhumerus -22.477650 -6.077700 48.388950
lradius 12.936100
lwrist 1.576560
lhand -0.311563 -9.144350
lfingers 3.562510
lthumb 12.496700 5.048200
rfemur -14.172000 0.602500 11.971500
rtibia 15.154650
rfoot -6.405300 0.309569
rtoes -7.484200
lfemur -3.503285 4.066940 -7.075100
ltibia 27.785049
lfoot 2.623915 6.801550
ltoes 1.113770
165
root 8.219640 16.669600 -13.775200 7.575640 9.277810 -1.093180
lowerback -2.290195 -0.806110 -0.100966
upperback -0.823615 -1.089905 1.743895
thorax 0.508600 -0.541980 1.792395
lowerneck -9.322200 -3.605365 -7.284700
upperneck 7.295800 -4.395860 7.346050
head 4.491010 -1.781370 3.131775
rclavicle -0.000000 0.000000
rhumerus -22.581699 4.811340 -40.818901
rradius 17.461500
rwrist -9.508300
rhand -14.159250 -13.322450
rfingers 3.562510
rthumb -0.846760 -28.308950
lclavicle -0.000000 0.000000
lhumerus -22.731449 -6.361000 48.587700
lradius 13.318950
lwrist 2.175810
lhand -0.414376 -9.319300
lfingers 3.562510
lthumb 12.398150 4.886935
rfemur -13.560350 0.640620 12.093650
rtibia 14.829500
rfoot -6.563200 0.424116
rtoes -7.361300
lfemur -4.012295 4.089495 -7.174600
ltibia 28.346149
lfoot 0.868410 6.577050
ltoes -6.722300
166
root 8.206510 16.694599 -13.653200 7.562010 9.027810 -0.992849
lowerback -2.193405 -0.711120 -0.201734
upperback -0.840740 -0.957125 1.762000
thorax 0.432209 -0.474553 1.878315
lowerneck -9.288400 -3.634240 -7.445500
upperneck 7.359300 -4.414140 7.398450
head 4.520020 -1.795340 3.177355
rclavicle -0.000000 -0.000000
rhumerus -22.622000 5.136550 -40.769451
rradius 17.934200
rwrist -9.663100
rhand -14.319700 -12.612750
rfingers 3.562510
rthumb -1.001740 -27.597900
lclavicle -0.000000 -0.000000
lhumerus -22.946751 -6.579900 48.825748
lradius 13.626200
lwrist 2.640425
lhand -0.464320 -9.471950
lfingers 3.562510
lthumb 12.350300 4.740820
rfemur -13.151850 0.698310 12.102900
rtibia 14.527650
rfoot -6.675100 0.496086
rtoes -7.688950
lfemur -4.711010 4.098780 -7.403850
ltibia 28.857550
lfoot 0.042549 6.351800
ltoes -8.110100
167
root 8.196030 16.715099 -13.533600 7.711250 8.787230 -1.032170
lowerback -2.256060 -0.636260 -0.186240
upperback -0.823735 -0.859305 1.763635
thorax 0.477543 -0.426136 1.875025
lowerneck -9.339350 -3.638690 -7.523450
upperneck 7.334200 -4.407230 7.487500
head 4.528365 -1.786280 3.223240
rclavicle -0.000000 0.000000
rhumerus -22.413799 5.457950 -40.812698
rradius 18.151300
rwrist -9.790500
rhand -14.653500 -12.125850
rfingers 3.562510
rthumb -1.324115 -27.107500
lclavicle -0.000000 0.000000
lhumerus -23.066650 -6.618400 48.862499
lradius 13.934500
lwrist 2.984780
lhand -0.433903 -9.568950
lfingers 3.562510
lthumb 12.379450 4.639840
rfemur -12.848450 0.758980 12.183350
rtibia 14.264050
rfoot -6.781050 0.592240
rtoes -7.760900
lfemur -5.492400 4.170930 -7.564900
ltibia 29.355400
lfoot -0.463393 6.139900
ltoes -6.441550
168
root 8.185570 16.733000 -13.415500 7.844470 8.657800 -1.415260
lowerback -2.332145 -0.559100 -0.000388
upperback -0.804800 -0.766570 1.791845
thorax 0.529120 -0.380315 1.802830
lowerneck -9.318450 -3.648410 -7.465700
upperneck 7.204950 -4.435925 7.537500
head 4.485975 -1.793095 3.223925
rclavicle -0.000000 -0.000000
rhumerus -22.086651 5.636300 -40.816700
rradius 18.247601
rwrist -9.887750
rhand -14.824650 -12.262400
rfingers 3.562510
rthumb -1.489385 -27.241850
lclavicle -0.000000 -0.000000
lhumerus -23.196301 -6.853750 48.934650
lradius 14.292700
lwrist 3.494230
lhand -0.410747 -9.508650
lfingers 3.562510
lthumb 12.401650 4.697090
rfemur -12.582900 0.850035 12.445500
rtibia 14.046050
rfoot -6.885400 0.616010
rtoes -7.470650
lfemur -6.311350 4.247955 -7.520450
ltibia 29.830099
lfoot -0.929195 5.826000
ltoes -5.744950
169
root 8.173040 16.745501 -13.302300 7.921230 8.519800 -1.653220
lowerback -2.351595 -0.471320 0.116015
upperback -0.766255 -0.656040 1.772830
thorax 0.569615 -0.325559 1.723025
lowerneck -9.223350 -3.664005 -7.398150
upperneck 7.073200 -4.491170 7.615850
head 4.435375 -1.812530 3.229930
rclavicle 0.000000 -0.000000
rhumerus -21.786051 5.650350 -40.776749
rradius 18.440550
rwrist -9.962350
rhand -14.849100 -12.543850
rfingers 3.562510
rthumb -1.512980 -27.522949
lclavicle 0.000000 -0.000000
lhumerus -23.283449 -7.122600 48.960548
lradius 14.654950
lwrist 4.126035
lhand -1.774380 -10.284000
lfingers 3.562510
lthumb 11.093600 4.089340
rfemur -12.304400 0.990820 12.610100
rtibia 13.847250
rfoot -6.991150 0.598685
rtoes -6.998550
lfemur -7.110400 4.258060 -7.567400
ltibia 30.233150
lfoot -1.333515 5.461150
ltoes -6.782450
170
root 8.166070 16.751699 -13.186300 7.899340 8.243240 -1.696230
lowerback -2.510420 -0.284330 0.158977
upperback -0.178062 -0.432144 1.770230
thorax 1.250185 -0.222230 1.706505
lowerneck -10.773450 -4.068760 -7.549450
upperneck 7.191950 -4.845160 7.795950
head 4.830535 -1.901045 3.249520
rclavicle -0.000000 -0.000000
rhumerus -20.428900 5.464700 -40.378349
rradius 18.575100
rwrist -10.082100
rhand -15.028150 -12.512850
rfingers 3.562510
rthumb -1.685935 -27.489401
lclavicle -0.000000 -0.000000
lhumerus -22.141251 -7.559200 48.861752
lradius 14.795350
lwrist 4.957430
lhand -5.738600 -13.011450
lfingers 3.562510
lthumb 7.280350 1.723030
rfemur -11.984550 1.019275 12.678300
rtibia 13.695350
rfoot -7.084750 0.749695
rtoes -6.879600
lfemur -7.784000 4.281630 -7.744800
ltibia 30.549400
lfoot -1.903125 5.257300
ltoes -6.749750
171
root 8.160190 16.757200 -13.065100 7.939580 7.972930 -1.768620
lowerback -2.285320 -0.208837 0.215586
upperback -0.788255 -0.307928 1.786315
thorax 0.488548 -0.150520 1.701105
lowerneck -8.812150 -3.808665 -7.910200
upperneck 6.856000 -4.662120 7.968200
head 4.364785 -1.908105 3.418145
rclavicle 0.000000 -0.000000
rhumerus -21.545650 5.756750 -40.479549
rradius 18.943150
rwrist -10.024250
rhand -14.865350 -12.148000
rfingers 3.562510
rthumb -1.528675 -27.126900
lclavicle 0.000000 -0.000000
lhumerus -23.592449 -7.329850 49.213749
lradius 15.225750
lwrist 5.568800
lhand -5.544850 -12.886600
lfingers 3.562510
lthumb 7.467050 1.834195
rfemur -11.751650 0.985720 12.783350
rtibia 13.635100
rfoot -7.135900 0.928920
rtoes -7.489450
lfemur -8.453100 4.302305 -7.906350
ltibia 30.790649
lfoot -2.414950 5.091650
ltoes -5.677750
172
root 8.154150 16.764099 -12.947900 8.002870 7.750310 -1.652480
lowerback -2.131190 -0.114741 0.168995
upperback -1.202795 -0.162201 1.780655
thorax -0.031700 -0.070758 1.730360
lowerneck -7.492100 -3.650645 -8.150800
upperneck 6.699000 -4.570175 8.005900
head 4.073985 -1.933235 3.501150
rclavicle 0.000000 -0.000000
rhumerus -22.213551 5.892950 -40.430851
rradius 19.236250
rwrist -9.936650
rhand -14.614450 -12.035400
rfingers 3.562510
rthumb -1.286380 -27.017500
lclavicle 0.000000 -0.000000
lhumerus -24.628851 -7.154300 49.461048
lradius 15.675000
lwrist 6.011650
lhand -5.711200 -12.828150
lfingers 3.562510
lthumb 7.306800 1.904410
rfemur -11.543750 1.068700 12.765300
rtibia 13.621000
rfoot -7.273300 0.955350
rtoes -7.765700
lfemur -9.143000 4.296490 -8.169200
ltibia 30.978901
lfoot -2.623165 4.875620
ltoes -4.441845
173
root 8.146170 16.764099 -12.837100 7.995780 7.622600 -1.475910
lowerback -2.038360 -0.048005 0.076775
upperback -1.288735 -0.064948 1.729405
thorax -0.177421 -0.019694 1.733525
lowerneck -7.128600 -3.597825 -8.200650
upperneck 6.645050 -4.552225 8.100850
head 3.995735 -1.935900 3.550985
rclavicle -0.000000 -0.000000
rhumerus -22.279150 5.974250 -40.394901
rradius 19.501699
rwrist -9.992450
rhand -15.085850 -12.520550
rfingers 3.562510
rthumb -1.741645 -27.496201
lclavicle -0.000000 -0.000000
lhumerus -24.852301 -6.950800 49.302898
lradius 15.945250
lwrist 6.368100
lhand -5.791950 -12.914100
lfingers 3.562510
lthumb 7.229000 1.824070
rfemur -11.298150 1.158970 12.719750
rtibia 13.626250
rfoot -7.566550 0.907675
rtoes -7.647800
lfemur -9.833400 4.298045 -8.438400
ltibia 31.136200
lfoot -2.708500 4.710045
ltoes -3.093700
174
root 8.135520 16.754900 -12.723500 7.990440 7.555130 -1.691180
lowerback -2.034060 -0.007209 0.137558
upperback -1.259090 -0.013328 1.744525
thorax -0.152407 0.005223 1.716730
lowerneck -7.075300 -3.578765 -8.122800
upperneck 6.557750 -4.543550 8.117600
head 3.953440 -1.929105 3.543530
rclavicle 0.000000 -0.000000
rhumerus -22.075150 6.085800 -40.361050
rradius 19.739750
rwrist -10.226350
rhand -15.604350 -12.311450
rfingers 3.562510
rthumb -2.242330 -27.277700
lclavicle 0.000000 -0.000000
lhumerus -24.745750 -6.515400 48.941051
lradius 16.036501
lwrist 6.474900
lhand -5.900600 -13.149600
lfingers 3.562510
lthumb 7.124300 1.596020
rfemur -11.088500 1.251075 12.897050
rtibia 13.657200
rfoot -7.851450 0.873490
rtoes -7.671500
lfemur -10.586600 4.268550 -8.471650
ltibia 31.270100
lfoot -3.002810 4.680290
ltoes -1.395985
